<mxfile host="app.diagrams.net" modified="2021-09-09T08:26:36.249Z" agent="5.0 (Macintosh; Intel Mac OS X 10_15_7) AppleWebKit/537.36 (KHTML, like Gecko) Chrome/93.0.4577.63 Safari/537.36" etag="mkjewrvsQ5ravKlJPgwD" version="15.1.2" type="github">
  <diagram id="aIT40ajQ5duMPCFTFmbt" name="Page-1">
    <mxGraphModel dx="1404" dy="795" grid="1" gridSize="10" guides="1" tooltips="1" connect="1" arrows="1" fold="1" page="1" pageScale="1" pageWidth="850" pageHeight="1100" math="0" shadow="0">
      <root>
        <mxCell id="0" />
        <mxCell id="1" parent="0" />
      </root>
    </mxGraphModel>
  </diagram>
</mxfile>
